<?xml version="1.0" encoding="utf-8"?>
<svg width="164" height="23" viewBox="0 0 164 23" fill="none" xmlns="http://www.w3.org/2000/svg">
  <path fill-rule="evenodd" clip-rule="evenodd" d="M 11.714 0.538 L 14.643 8.946 L 23.429 8.946 L 16.595 14.387 L 19.036 22.795 L 11.714 17.849 L 4.393 22.795 L 6.833 14.387 L 0 8.946 L 8.786 8.946 L 11.714 0.538 Z M 46.857 0.538 L 49.786 8.946 L 58.571 8.946 L 51.738 14.387 L 54.179 22.795 L 46.857 17.849 L 39.536 22.795 L 41.976 14.387 L 35.143 8.946 L 43.929 8.946 L 46.857 0.538 Z M 79.071 8.946 L 82 0.538 L 79.071 8.946 Z M 117.143 0.538 L 114.214 8.946 L 117.143 0.538 Z M 155.214 8.946 L 164 8.946 L 155.214 8.946 Z" fill="#FF9900"/>
</svg>