<?xml version="1.0" encoding="utf-8"?>
<svg width="164" height="23" viewBox="0 0 164 23" fill="none" xmlns="http://www.w3.org/2000/svg">
  <path fill-rule="evenodd" clip-rule="evenodd" d="M 11.714 0.538 L 14.643 8.946 L 23.429 8.946 L 16.595 14.387 L 19.036 22.795 L 11.714 17.849 L 4.393 22.795 L 6.833 14.387 L 0 8.946 L 8.786 8.946 L 11.714 0.538 Z M 46.857 0.538 L 49.786 8.946 L 58.571 8.946 L 51.738 14.387 L 54.179 22.795 L 46.857 17.849 L 39.536 22.795 L 41.976 14.387 L 35.143 8.946 L 43.929 8.946 L 46.857 0.538 Z M 84.929 8.946 L 82 0.538 L 79.071 8.946 L 70.286 8.946 L 77.119 14.387 L 74.679 22.795 L 82 17.849 L 89.321 22.795 L 86.881 14.387 L 93.714 8.946 L 84.929 8.946 Z M 117.143 0.538 L 120.071 8.946 L 128.857 8.946 L 122.024 14.387 L 124.464 22.795 L 117.143 17.849 L 109.821 22.795 L 112.262 14.387 L 105.429 8.946 L 114.214 8.946 L 117.143 0.538 Z" fill="#FF9900"/>
</svg>