<svg width="164" height="23" viewBox="0 0 164 23" fill="none" xmlns="http://www.w3.org/2000/svg">
<path fill-rule="evenodd" clip-rule="evenodd" d="M11.7143 0.538086L14.6429 8.94634H23.4286L16.5952 14.387L19.0357 22.7952L11.7143 17.8492L4.39286 22.7952L6.83333 14.387L0 8.94634H8.78571L11.7143 0.538086ZM46.8571 0.538086L49.7857 8.94634H58.5714L51.7381 14.387L54.1786 22.7952L46.8571 17.8492L39.5357 22.7952L41.9762 14.387L35.1429 8.94634H43.9286L46.8571 0.538086ZM84.9286 8.94634L82 0.538086L79.0714 8.94634H70.2857L77.1191 14.387L74.6786 22.7952L82 17.8492L89.3214 22.7952L86.881 14.387L93.7143 8.94634H84.9286ZM117.143 0.538086L120.071 8.94634H128.857L122.024 14.387L124.464 22.7952L117.143 17.8492L109.821 22.7952L112.262 14.387L105.429 8.94634H114.214L117.143 0.538086ZM155.214 8.94634L152.286 0.538086L149.357 8.94634H140.571L147.405 14.387L144.964 22.7952L152.286 17.8492L159.607 22.7952L157.167 14.387L164 8.94634H155.214Z" fill="#FF9900"/>
</svg>
